<svg width="45.812500" height="34.677124" viewBox="0 0 45.8125 34.6771" fill="none" xmlns="http://www.w3.org/2000/svg" xmlns:xlink="http://www.w3.org/1999/xlink">
	<desc>
			Created with Pixso.
	</desc>
	<defs/>
	<path id="Vector" d="M34.375 0C30.3125 0 25.9375 0.833252 22.9167 3.125C19.8958 0.833252 15.5208 0 11.4583 0C8.4375 0 5.22917 0.458252 2.54167 1.64575C1.02083 2.33325 0 3.8125 0 5.5L0 29C0 31.7083 2.54167 33.7084 5.16667 33.0416C7.20833 32.5208 9.375 32.2917 11.4583 32.2917C14.7083 32.2917 18.1667 32.8334 20.9583 34.2084C22.2083 34.8334 23.625 34.8334 24.8542 34.2084C27.6458 32.8125 31.1042 32.2917 34.3542 32.2917C36.4375 32.2917 38.6042 32.5208 40.6458 33.0416C43.2708 33.7291 45.8125 31.7292 45.8125 29L45.8125 5.5C45.8125 3.8125 44.7917 2.33325 43.2708 1.64575C40.6042 0.458252 37.3958 0 34.375 0ZM41.6667 26.5208C41.6667 27.8333 40.4583 28.7917 39.1667 28.5625C37.6042 28.2708 35.9792 28.1458 34.375 28.1458C30.8333 28.1458 25.7292 29.5 22.9167 31.2708L22.9167 7.29175C25.7292 5.52075 30.8333 4.16675 34.375 4.16675C36.2917 4.16675 38.1875 4.35425 40 4.75C40.9583 4.95825 41.6667 5.8125 41.6667 6.79175L41.6667 26.5208Z" fill="#131314" fill-opacity="1.000000" fill-rule="nonzero"/>
</svg>
