<svg width="24.000000" height="24.000000" viewBox="0 0 24 24" fill="none" xmlns="http://www.w3.org/2000/svg" xmlns:xlink="http://www.w3.org/1999/xlink">
	<desc>
			Created with Pixso.
	</desc>
	<defs>
		<clipPath id="clip1_132">
			<rect id="Frame" width="24.000000" height="24.000000" fill="white" fill-opacity="0"/>
		</clipPath>
	</defs>
	<rect id="Frame" width="24.000000" height="24.000000" fill="#FFFFFF" fill-opacity="0"/>
	<g clip-path="url(#clip1_132)">
		<path id="Vector" d="M7.95372 7.95386C7.63449 8.27295 7.63449 8.79077 7.95372 9.10986L10.844 12L7.95374 14.8904C7.63449 15.2095 7.63449 15.7273 7.95374 16.0464C8.27298 16.3655 8.7906 16.3655 9.1098 16.0464L12 13.156L14.8902 16.0464C15.2094 16.3655 15.727 16.3655 16.0462 16.0464C16.3655 15.7271 16.3655 15.2095 16.0462 14.8904L13.1561 12L16.0462 9.10986C16.3655 8.79077 16.3655 8.27295 16.0462 7.95386C15.727 7.63452 15.2094 7.63452 14.8902 7.95386L12 10.844L9.1098 7.95386C8.7906 7.63452 8.27296 7.63452 7.95372 7.95386Z" fill="#000000" fill-opacity="1.000000" fill-rule="nonzero"/>
	</g>
</svg>
