<svg width="50.000000" height="50.000000" viewBox="0 0 50 50" fill="none" xmlns="http://www.w3.org/2000/svg" xmlns:xlink="http://www.w3.org/1999/xlink">
	<desc>
			Created with Pixso.
	</desc>
	<defs>
		<clipPath id="clip4_1073">
			<rect id="Frame" width="50.000000" height="50.000000" fill="white" fill-opacity="0"/>
		</clipPath>
	</defs>
	<rect id="Frame" width="50.000000" height="50.000000" fill="#FFFFFF" fill-opacity="0"/>
	<g clip-path="url(#clip4_1073)">
		<path id="Vector" d="M43.75 16.6667C40.7291 16.6667 39.0416 19.6667 39.7291 21.8959L32.3333 29.3126C31.7083 29.1251 30.7916 29.1251 30.1666 29.3126L24.8541 24.0001C25.5625 21.7709 23.875 18.7501 20.8333 18.7501C17.8125 18.7501 16.1041 21.7501 16.8125 24.0001L7.31248 33.4792C5.08331 32.7917 2.08331 34.4792 2.08331 37.5001C2.08331 39.7917 3.95831 41.6667 6.24998 41.6667C9.27081 41.6667 10.9583 38.6667 10.2708 36.4376L19.75 26.9376C20.375 27.1251 21.2916 27.1251 21.9166 26.9376L27.2291 32.2501C26.5208 34.4792 28.2083 37.5001 31.25 37.5001C34.2708 37.5001 35.9791 34.5001 35.2708 32.2501L42.6875 24.8542C44.9166 25.5417 47.9166 23.8542 47.9166 20.8334C47.9166 18.5417 46.0416 16.6667 43.75 16.6667Z" fill="#131314" fill-opacity="1.000000" fill-rule="nonzero"/>
		<path id="Vector" d="M31.25 18.75L33.2083 14.4375L37.5 12.5L33.2083 10.5625L31.25 6.25L29.3333 10.5625L25 12.5L29.3333 14.4375L31.25 18.75ZM7.29165 22.9167L8.33331 18.75L12.5 17.7083L8.33331 16.6667L7.29165 12.5L6.24998 16.6667L2.08331 17.7083L6.24998 18.75L7.29165 22.9167Z" fill="#131314" fill-opacity="1.000000" fill-rule="nonzero"/>
	</g>
</svg>
