<svg width="60.000000" height="14.000000" viewBox="0 0 60 14" fill="none" xmlns="http://www.w3.org/2000/svg" xmlns:xlink="http://www.w3.org/1999/xlink">
	<desc>
			Created with Pixso.
	</desc>
	<defs/>
	<path d="M37.6385 13.0686L38.1583 12.9551C38.6232 12.8635 38.9282 12.6897 38.9282 12.103L38.9282 2.3479L37.6385 1.62793L37.6385 1.09814L41.0259 0L41.276 0L41.276 12.103C41.276 12.709 41.6229 12.8982 42.0841 12.9927L42.5267 13.0686L42.5267 13.8079L37.6385 13.8079L37.6385 13.0686ZM41.488 8.88306L43.7587 6.68701C44.5286 5.92944 44.4328 5.39966 43.6053 5.2478L42.9888 5.13428L42.9888 4.39575L47.743 4.39575L47.743 5.13428L47.2465 5.2312C46.6951 5.32495 46.1891 5.59082 45.8034 5.98975L43.6434 8.06787L47.9355 13.1829L47.7625 13.8645L45.4147 13.8645L41.488 8.88306ZM29.7666 0.397217C26.1673 0.397217 22.991 3.125 22.991 7.38623C22.991 11.3264 25.84 13.9973 29.5165 13.9973C33.3083 13.9973 36.3294 11.4023 36.3294 7.17847C36.3294 3.125 33.5008 0.397217 29.7666 0.397217ZM29.5546 1.60962C31.9601 1.60962 33.5194 3.69312 33.5194 7.38623C33.5194 10.9851 31.9973 12.7849 29.7852 12.7849C27.4569 12.7849 25.8009 10.6821 25.8009 7.02661C25.8009 3.33252 27.4374 1.60962 29.5546 1.60962ZM13.9474 4.95654L13.9474 6.75562C12.3451 6.75757 10.809 7.38477 9.6759 8.49976C8.76154 9.39966 8.16992 10.5579 7.97461 11.8003L13.9474 11.8003L13.9474 13.5991L0 13.5991L0 11.8003L6.00476 11.8003C5.80927 10.5496 5.21423 9.38354 4.29388 8.47778C3.15491 7.35693 1.61072 6.72632 0 6.72461L0 4.92188C1.4389 4.92285 2.85028 5.31006 4.08221 6.04175C5.31415 6.77344 6.31995 7.82202 6.99139 9.07422C7.66187 7.8313 8.66351 6.79126 9.88898 6.06592C11.1144 5.34058 12.5174 4.95703 13.9474 4.95654ZM49.9755 6.38257L49.9755 10.9099C49.9755 13.031 51.4196 13.9973 52.8255 13.9973C54.2834 13.9973 55.5536 13.1252 56.2658 12.1033L56.2658 14L56.7084 14L60 13.375L60 12.6714L59.3491 12.6147C58.7522 12.5388 58.5021 12.311 58.5021 11.8379L58.5021 4.1333L58.0213 4.1333L54.6907 4.7373L54.6907 5.41992L55.3258 5.51123C55.9032 5.56812 56.1338 5.81421 56.1338 6.38257L56.1338 11.6724C55.5218 12.0493 54.8157 12.2522 54.0937 12.2588C53.2123 12.2588 52.3271 11.9185 52.3271 10.3271L52.3271 4.1333L51.8622 4.1333L48.5901 4.7373L48.5901 5.41992L49.187 5.51123C49.7449 5.5874 49.9755 5.81421 49.9755 6.38257Z" fill="#000000" fill-opacity="1.000000" fill-rule="evenodd"/>
</svg>
